<?xml version="1.0" standalone="no"?>
<!DOCTYPE svg PUBLIC "-//W3C//DTD SVG 1.1//EN" "http://www.w3.org/Graphics/SVG/1.1/DTD/svg11.dtd" >
<svg xmlns="http://www.w3.org/2000/svg">
<metadata>Generated by IcoMoon</metadata>
<defs>
<font id="icomoon" horiz-adv-x="1024">
<font-face units-per-em="1024" ascent="960" descent="-64" />
<missing-glyph horiz-adv-x="1024" />
<glyph unicode="&#x20;" horiz-adv-x="512" d="" />
<glyph unicode="&#xe900;" glyph-name="chevron-left" d="M674.688 744.832c-4.516-0.916-8.512-2.272-12.262-4.061l0.316 0.136c-2.645-1.408-65.237-63.061-139.051-137.045-144.043-144.384-138.368-138.027-138.368-155.861s-5.632-11.477 138.368-155.904c100.949-101.248 136.064-135.424 141.696-137.984 4.693-2.133 11.093-3.413 17.28-3.413 23.381 0 41.131 17.365 41.344 40.448 0.128 18.603 5.163 12.843-121.301 139.52l-117.12 117.333 117.12 117.333c126.549 126.805 121.429 120.875 121.301 139.648-0.286 22.52-18.609 40.666-41.17 40.666-2.885 0-5.702-0.297-8.419-0.862l0.267 0.046z" />
<glyph unicode="&#xe901;" glyph-name="checkout-info" d="M950.912 122.112l-399.616 691.2c-21.632 37.632-57.088 37.632-78.72 0l-399.616-691.2c-21.76-37.376-3.584-68.352 39.424-68.352h799.232c43.136 0.128 61.184 30.976 39.296 68.352zM567.68 163.584h-110.72v106.624h110.208zM567.68 337.664h-110.72v252.672h110.208z" />
<glyph unicode="&#xe902;" glyph-name="info-circle" d="M512 832c-212.077 0-384-171.923-384-384 0-212.079 171.923-384 384-384 212.079 0 384 171.921 384 384 0 212.077-171.921 384-384 384zM42.667 448c0 259.206 210.128 469.333 469.333 469.333 259.204 0 469.333-210.128 469.333-469.333 0-259.204-210.129-469.333-469.333-469.333-259.206 0-469.333 210.129-469.333 469.333zM469.333 618.667c0 23.564 19.102 42.667 42.667 42.667h0.427c23.565 0 42.667-19.103 42.667-42.667s-19.102-42.667-42.667-42.667h-0.427c-23.565 0-42.667 19.103-42.667 42.667zM512 490.667c23.565 0 42.667-19.102 42.667-42.667v-170.667c0-23.565-19.102-42.667-42.667-42.667s-42.667 19.102-42.667 42.667v170.667c0 23.565 19.102 42.667 42.667 42.667z" />
<glyph unicode="&#xe903;" glyph-name="alert-triangle" d="M512 618.667c23.565 0 42.667-19.103 42.667-42.667v-170.667c0-23.565-19.102-42.667-42.667-42.667s-42.667 19.102-42.667 42.667v170.667c0 23.564 19.102 42.667 42.667 42.667zM469.333 234.667c0 23.565 19.102 42.667 42.667 42.667h0.427c23.565 0 42.667-19.102 42.667-42.667s-19.102-42.667-42.667-42.667h-0.427c-23.565 0-42.667 19.102-42.667 42.667zM510.447 787.368c-0.269-0.367-0.559-0.765-0.862-1.196-5.030-7.1-11.174-17.627-21.291-35.104l-350.931-606.151c-10.154-17.536-16.25-28.151-19.919-36.083-0.223-0.486-0.426-0.934-0.611-1.353 0.456-0.051 0.947-0.102 1.476-0.149 8.702-0.798 20.944-0.841 41.21-0.841h701.853c20.271 0 32.512 0.043 41.212 0.841 0.529 0.047 1.020 0.098 1.476 0.149-0.183 0.418-0.388 0.866-0.61 1.353-3.669 7.932-9.766 18.547-19.921 36.083l-350.929 606.148c-10.116 17.477-16.26 28.007-21.291 35.109-0.307 0.43-0.593 0.827-0.862 1.194zM475.78 867.308c22.071 9.814 47.27 9.81 69.338 0 17.045-7.58 28.122-20.933 35.827-31.812 7.578-10.701 15.693-24.719 24.614-40.138l352.721-609.245c8.956-15.467 17.097-29.521 22.613-41.451 5.611-12.126 11.695-28.42 9.754-47.019-2.509-24.068-15.121-45.939-34.679-60.164-15.125-10.995-32.286-13.905-45.589-15.125-13.086-1.199-29.329-1.199-47.202-1.199h-705.46c-17.873 0-34.115 0-47.203 1.199-13.302 1.22-30.454 4.122-45.58 15.121-19.568 14.229-32.18 36.1-34.69 60.164-1.939 18.598 4.145 34.897 9.754 47.023 5.519 11.93 13.658 25.984 22.615 41.455l0.902 1.557 351.821 607.687c8.922 15.417 17.037 29.435 24.614 40.136 7.706 10.88 18.786 24.232 35.831 31.811z" />
<glyph unicode="&#xe907;" glyph-name="user" d="M493.227 872.875c-92.288-7.296-173.184-70.101-202.027-156.928-10.027-30.080-12.117-43.392-12.117-75.947s2.091-45.867 12.117-75.947c29.056-87.381 110.251-150.059 203.307-156.843 5.423-0.451 11.737-0.708 18.111-0.708 64.923 0 123.62 26.655 165.745 69.619l0.037 0.038c32.597 33.323 53.333 72.619 63.445 120.32 4.309 20.309 4.309 66.731 0 87.040-10.112 47.701-30.848 86.997-63.445 120.32-37.504 38.272-91.136 64.213-141.355 68.352-21.973 1.792-28.075 1.92-43.819 0.683zM539.136 787.541c45.525-7.381 87.808-40.107 108.587-83.968 10.155-21.461 13.269-36.352 13.269-63.573s-3.115-42.112-13.269-63.573c-20.779-43.861-63.061-76.587-108.587-83.968-8.148-1.080-17.57-1.696-27.136-1.696s-18.988 0.616-28.228 1.811l1.092-0.115c-45.525 7.381-87.808 40.107-108.587 83.968-10.155 21.461-13.269 36.352-13.269 63.573 0 19.2 0.725 26.581 3.669 37.547 8.96 32.853 27.819 61.056 54.869 81.877 18.304 14.123 41.557 24.619 61.867 28.032 8.475 1.036 18.286 1.627 28.235 1.627 9.685 0 19.239-0.56 28.631-1.65l-1.144 0.108zM480.896 318.208c-137.344-7.381-271.403-68.949-370.176-169.941-21.376-21.845-24.149-26.795-24.149-42.411 0-22.187 17.877-40.149 40.405-40.576 14.891-0.299 20.821 2.859 40.277 21.632 9.856 9.515 23.68 22.272 30.72 28.416 63.787 55.509 143.147 95.061 221.867 110.549 35.712 7.040 46.208 7.936 92.16 7.936 28.288 0 50.645-0.811 59.733-2.219 59.477-9.003 107.093-24.192 156.8-49.963 43.605-22.571 82.091-50.731 124.117-90.795 24.064-22.955 29.141-25.856 44.373-25.557 22.288 0.216 40.286 18.274 40.405 40.565v0.011c0 15.616-2.773 20.565-24.149 42.411-87.467 89.472-203.819 148.651-325.888 165.803-15.915 2.219-73.472 6.272-80.512 5.632-1.408-0.128-13.099-0.768-25.984-1.493z" />
<glyph unicode="&#xe908;" glyph-name="phone" d="M257.451 891.648c-20.039-3.384-37.9-10.691-53.484-21.131l0.492 0.31c-14.933-10.411-75.648-70.613-88.149-87.467-30.805-41.344-40.277-95.829-25.941-149.333 39.595-147.925 110.464-272.512 216.619-380.971 110.848-113.237 241.408-189.653 392.875-229.931 58.667-15.573 110.763-5.888 156.16 29.056 15.189 11.691 79.659 78.549 85.803 89.045 26.965 45.824 24.576 100.565-6.144 141.44-12.16 16.213-67.2 70.229-80.64 79.147-38.571 25.643-85.163 28.459-127.36 7.723-13.952-6.869-22.827-13.739-43.392-33.664l-11.136-10.795-15.317 7.893c-56.704 29.312-100.949 61.227-144.811 104.405-45.653 45.013-79.787 90.709-107.648 144.085l-12.629 24.277 16 16.512c30.933 31.872 41.685 56.533 41.685 95.403 0 24.32-4.395 41.557-16 62.251-9.685 17.28-66.859 76.245-88.064 90.795-20.32 13.784-45.385 22.007-72.372 22.007-5.833 0-11.577-0.384-17.207-1.129l0.661 0.071zM293.077 804.608c10.283-4.437 65.621-59.435 70.315-69.888 4.48-9.984 4.608-25.685 0.299-34.987-1.749-3.755-11.648-15.829-22.016-26.795-21.035-22.4-26.325-31.317-30.507-51.84-4.395-21.419-1.792-34.987 12.373-63.872 60.459-123.563 160.384-226.645 283.179-292.224 32.384-17.28 44.715-21.973 60.501-23.040 28.075-1.92 47.957 6.784 75.008 32.811 9.941 9.6 20.693 18.773 23.851 20.395 8.875 4.523 22.144 5.291 32.853 1.792 8.192-2.645 12.373-6.187 39.253-33.152 33.707-33.792 37.845-39.893 37.973-55.595 0.128-17.109-3.413-22.443-38.443-57.429-45.013-44.971-53.632-49.963-86.784-49.92-18.389 0.043-21.333 0.555-46.251 7.979-131.968 39.339-237.696 102.357-333.995 199.083-83.79 83.639-148.119 186.746-185.625 301.96l-1.511 5.368c-10.368 32.171-16.299 56.747-16.256 67.413 0 11.307 4.053 27.861 9.643 39.808 3.627 7.723 11.733 16.896 39.68 45.013 19.328 19.413 37.419 36.224 40.235 37.333 13.355 5.333 23.467 5.291 36.224-0.213z" />
<glyph unicode="&#xe927;" glyph-name="add" d="M42.667 789.333c0 70.692 57.308 128 128 128h682.667c70.694 0 128-57.308 128-128v-682.667c0-70.694-57.306-128-128-128h-682.667c-70.692 0-128 57.306-128 128v682.667zM170.667 832c-23.564 0-42.667-19.103-42.667-42.667v-682.667c0-23.565 19.103-42.667 42.667-42.667h682.667c23.565 0 42.667 19.102 42.667 42.667v682.667c0 23.564-19.102 42.667-42.667 42.667h-682.667zM512 746.667c23.565 0 42.667-19.103 42.667-42.667v-213.333h213.333c23.565 0 42.667-19.102 42.667-42.667s-19.102-42.667-42.667-42.667h-213.333v-213.333c0-23.565-19.102-42.667-42.667-42.667s-42.667 19.102-42.667 42.667v213.333h-213.333c-23.564 0-42.667 19.102-42.667 42.667s19.103 42.667 42.667 42.667h213.333v213.333c0 23.564 19.102 42.667 42.667 42.667z" />
<glyph unicode="&#xe928;" glyph-name="align-right" d="M128 704c0 23.564 19.103 42.667 42.667 42.667h725.333c23.565 0 42.667-19.103 42.667-42.667s-19.102-42.667-42.667-42.667h-725.333c-23.564 0-42.667 19.103-42.667 42.667zM298.667 533.333c0 23.564 19.103 42.667 42.667 42.667h554.667c23.565 0 42.667-19.103 42.667-42.667s-19.102-42.667-42.667-42.667h-554.667c-23.564 0-42.667 19.102-42.667 42.667zM128 362.667c0 23.565 19.103 42.667 42.667 42.667h725.333c23.565 0 42.667-19.102 42.667-42.667s-19.102-42.667-42.667-42.667h-725.333c-23.564 0-42.667 19.102-42.667 42.667zM298.667 192c0 23.565 19.103 42.667 42.667 42.667h554.667c23.565 0 42.667-19.102 42.667-42.667s-19.102-42.667-42.667-42.667h-554.667c-23.564 0-42.667 19.102-42.667 42.667z" />
<glyph unicode="&#xe929;" glyph-name="back" d="M542.17 776.837c16.661-16.663 16.661-43.677 0-60.34l-225.83-225.83h494.327c23.565 0 42.667-19.102 42.667-42.667s-19.102-42.667-42.667-42.667h-494.327l225.83-225.83c16.661-16.661 16.661-43.678 0-60.339s-43.678-16.661-60.339 0l-298.667 298.667c-16.662 16.661-16.662 43.678 0 60.339l298.667 298.667c16.661 16.662 43.678 16.662 60.339 0z" />
<glyph unicode="&#xe92a;" glyph-name="check" d="M883.503 734.17c16.661-16.663 16.661-43.677 0-60.34l-469.333-469.333c-16.663-16.661-43.677-16.661-60.34 0l-213.333 213.333c-16.662 16.661-16.662 43.678 0 60.339s43.677 16.661 60.34 0l183.163-183.164 439.164 439.164c16.661 16.662 43.678 16.662 60.339 0z" />
<glyph unicode="&#xe92b;" glyph-name="chevron-right" d="M396.497 734.17c16.663 16.662 43.678 16.662 60.34 0l256-256c16.661-16.661 16.661-43.678 0-60.339l-256-256c-16.661-16.661-43.677-16.661-60.34 0s-16.662 43.678 0 60.339l225.831 225.83-225.831 225.83c-16.662 16.663-16.662 43.677 0 60.34z" />
<glyph unicode="&#xe92c;" glyph-name="copy" d="M220.222 917.333h327.554c22.494 0.001 41.899 0.001 57.877-1.304 16.87-1.378 33.647-4.421 49.792-12.647 24.085-12.272 43.665-31.853 55.936-55.938 8.226-16.144 11.268-32.922 12.646-49.789 1.306-15.982 1.306-35.386 1.306-57.878v-78.444h78.443c22.494 0.001 41.899 0.001 57.877-1.304 16.87-1.378 33.647-4.421 49.792-12.647 24.085-12.272 43.665-31.854 55.936-55.938 8.226-16.144 11.268-32.922 12.646-49.789 1.306-15.98 1.306-35.385 1.306-57.874v-327.561c0-22.49 0-41.894-1.306-57.873-1.378-16.87-4.42-33.647-12.646-49.792-12.271-24.085-31.851-43.665-55.936-55.936-16.145-8.226-32.922-11.268-49.792-12.646-15.979-1.306-35.383-1.306-57.873-1.306h-327.561c-22.49 0-41.894 0-57.874 1.306-16.868 1.378-33.645 4.42-49.789 12.646-24.084 12.271-43.666 31.851-55.938 55.936-8.226 16.145-11.269 32.922-12.647 49.792-1.306 15.979-1.305 35.383-1.304 57.877v78.443h-78.444c-22.492 0-41.896 0-57.878 1.306-16.868 1.378-33.645 4.42-49.789 12.646-24.085 12.271-43.666 31.851-55.938 55.936-8.226 16.145-11.269 32.922-12.647 49.792-1.306 15.979-1.305 35.383-1.304 57.877v327.554c-0.001 22.492-0.001 41.895 1.304 57.877 1.378 16.868 4.421 33.645 12.647 49.789 12.272 24.085 31.853 43.666 55.938 55.938 16.144 8.226 32.922 11.269 49.789 12.647 15.982 1.306 35.385 1.305 57.877 1.304zM384 157.867c0-24.602 0.033-40.482 1.021-52.574 0.947-11.588 2.554-15.885 3.63-17.997 4.090-8.030 10.618-14.554 18.646-18.645 2.11-1.075 6.407-2.684 17.998-3.631 12.090-0.986 27.971-1.020 52.572-1.020h324.267c24.602 0 40.482 0.034 52.574 1.020 11.588 0.947 15.885 2.556 17.997 3.631 8.030 4.092 14.554 10.615 18.645 18.645 1.075 2.108 2.684 6.409 3.631 17.997 0.986 12.092 1.020 27.972 1.020 52.574v324.267c0 24.602-0.034 40.482-1.020 52.572-0.947 11.591-2.556 15.888-3.631 17.998-4.092 8.028-10.615 14.555-18.645 18.646-2.108 1.075-6.409 2.683-17.997 3.63-12.092 0.988-27.972 1.021-52.574 1.021h-324.267c-24.602 0-40.482-0.033-52.572-1.021-11.591-0.947-15.888-2.554-17.998-3.63-8.028-4.090-14.555-10.618-18.646-18.646-1.075-2.11-2.683-6.407-3.63-17.998-0.988-12.090-1.021-27.971-1.021-52.572v-324.267zM640 661.333v76.8c0 24.599-0.034 40.483-1.020 52.572-0.947 11.591-2.556 15.888-3.631 17.998-4.092 8.028-10.615 14.555-18.645 18.646-2.112 1.075-6.409 2.683-17.997 3.63-12.092 0.988-27.972 1.021-52.574 1.021h-324.267c-24.599 0-40.483-0.033-52.572-1.021-11.591-0.947-15.888-2.554-17.998-3.63-8.028-4.090-14.555-10.618-18.646-18.646-1.075-2.11-2.683-6.407-3.63-17.998-0.988-12.089-1.021-27.973-1.021-52.572v-324.267c0-24.602 0.033-40.482 1.021-52.574 0.947-11.588 2.554-15.885 3.63-17.997 4.090-8.030 10.618-14.554 18.646-18.645 2.11-1.075 6.407-2.684 17.998-3.631 12.089-0.986 27.973-1.020 52.572-1.020h76.8v163.776c-0.001 22.494-0.001 41.899 1.304 57.879 1.378 16.868 4.421 33.645 12.647 49.789 12.272 24.085 31.853 43.666 55.938 55.938 16.144 8.226 32.922 11.269 49.789 12.647 15.98 1.306 35.385 1.305 57.879 1.304h163.776z" />
<glyph unicode="&#xe92d;" glyph-name="delete" d="M405.309 832.002c1.419-0.002 2.849-0.003 4.291-0.003h326.029c34.347 0 62.69 0.001 85.781-1.886 23.983-1.959 46.029-6.165 66.739-16.716 32.111-16.362 58.219-42.471 74.581-74.584 10.551-20.708 14.758-42.754 16.717-66.737 1.886-23.091 1.886-51.436 1.886-85.781v-276.591c0-34.347 0-62.694-1.886-85.781-1.958-23.983-6.165-46.029-16.717-66.739-16.363-32.111-42.47-58.223-74.581-74.581-20.71-10.551-42.756-14.758-66.739-16.717-23.091-1.886-51.435-1.886-85.781-1.886h-326.029c-1.442 0-2.873-0.004-4.291-0.004-20.77-0.021-39.066-0.043-56.459 4.924-15.261 4.361-29.579 11.516-42.223 21.111-14.409 10.935-25.371 25.583-37.815 42.214-0.85 1.135-1.707 2.278-2.572 3.435l-184.32 245.76c-0.759 1.011-1.545 2.048-2.351 3.115-8.464 11.183-19.075 25.199-23.424 41.719-3.748 14.242-3.748 29.21 0 43.447 4.349 16.521 14.961 30.541 23.424 41.724 0.806 1.062 1.591 2.099 2.351 3.115l184.32 245.759c0.865 1.154 1.722 2.299 2.572 3.435 12.444 16.63 23.406 31.279 37.815 42.213 12.644 9.594 26.961 16.753 42.223 21.111 17.393 4.967 35.689 4.947 56.459 4.924zM409.6 746.666c-27.504 0-32.923-0.386-37.317-1.641-5.087-1.453-9.86-3.839-14.074-7.037-3.64-2.762-7.2-6.866-23.702-28.869l-184.32-245.759c-5.864-7.821-8.925-11.942-10.939-15.066-0.067-0.102-0.13-0.201-0.19-0.294 0.060-0.094 0.123-0.196 0.19-0.299 2.014-3.123 5.075-7.245 10.939-15.061l184.32-245.76c16.503-22.003 20.062-26.108 23.702-28.868 4.215-3.2 8.987-5.585 14.074-7.040 4.394-1.254 9.812-1.638 37.317-1.638h324.267c36.548 0 61.393 0.034 80.597 1.6 18.705 1.527 28.271 4.301 34.944 7.701 16.055 8.179 29.111 21.235 37.291 37.291 3.401 6.673 6.17 16.239 7.697 34.944 1.57 19.204 1.604 44.049 1.604 80.597v273.066c0 36.547-0.034 61.392-1.604 80.596-1.527 18.705-4.297 28.272-7.697 34.945-8.179 16.056-21.235 29.111-37.291 37.292-6.673 3.4-16.239 6.17-34.944 7.699-19.204 1.569-44.049 1.602-80.597 1.602h-324.267zM439.164 606.169c16.661 16.663 43.678 16.663 60.339 0l97.83-97.83 97.83 97.83c16.661 16.663 43.678 16.663 60.339 0s16.661-43.677 0-60.34l-97.83-97.829 97.83-97.83c16.661-16.661 16.661-43.678 0-60.339-16.661-16.666-43.678-16.666-60.339 0l-97.83 97.83-97.83-97.83c-16.661-16.666-43.678-16.666-60.339 0-16.663 16.661-16.663 43.678 0 60.339l97.83 97.83-97.83 97.829c-16.663 16.662-16.663 43.677 0 60.34z" />
<glyph unicode="&#xe92e;" glyph-name="download" d="M512 874.667c23.565 0 42.667-19.103 42.667-42.667v-494.327l183.164 183.164c16.661 16.663 43.678 16.663 60.339 0 16.661-16.661 16.661-43.678 0-60.339l-256-256c-16.661-16.661-43.678-16.661-60.339 0l-256 256c-16.662 16.661-16.662 43.678 0 60.339 16.663 16.663 43.677 16.663 60.34 0l183.163-183.164v494.327c0 23.564 19.102 42.667 42.667 42.667zM85.333 64c0 23.565 19.103 42.667 42.667 42.667h768c23.565 0 42.667-19.102 42.667-42.667s-19.102-42.667-42.667-42.667h-768c-23.564 0-42.667 19.102-42.667 42.667z" />
<glyph unicode="&#xe92f;" glyph-name="dropdown" d="M798.17 606.17c16.661-16.663 16.661-43.677 0-60.34l-256-256c-16.661-16.661-43.678-16.661-60.339 0l-256 256c-16.662 16.663-16.662 43.677 0 60.34s43.677 16.662 60.34 0l225.83-225.831 225.83 225.831c16.661 16.662 43.678 16.662 60.339 0z" />
<glyph unicode="&#xe930;" glyph-name="equel" d="M170.667 576c0 23.564 19.103 42.667 42.667 42.667h597.333c23.565 0 42.667-19.103 42.667-42.667s-19.102-42.667-42.667-42.667h-597.333c-23.564 0-42.667 19.103-42.667 42.667zM170.667 320c0 23.565 19.103 42.667 42.667 42.667h597.333c23.565 0 42.667-19.102 42.667-42.667s-19.102-42.667-42.667-42.667h-597.333c-23.564 0-42.667 19.102-42.667 42.667z" />
<glyph unicode="&#xe931;" glyph-name="eye" d="M271.304 608.303c-64.268-53.639-109.244-116.672-131.971-152.657-1.508-2.389-2.563-4.062-3.444-5.513-0.582-0.956-0.966-1.621-1.222-2.082 0-0.017 0-0.034 0-0.051s0-0.034 0-0.051c0.257-0.461 0.641-1.126 1.222-2.082 0.881-1.451 1.936-3.123 3.444-5.513 22.727-35.985 67.702-99.017 131.971-152.657 64.168-53.555 144.998-95.697 240.713-95.697s176.546 42.142 240.713 95.697c64.269 53.641 109.244 116.672 131.972 152.657 1.506 2.389 2.56 4.062 3.443 5.513 0.58 0.956 0.964 1.621 1.225 2.082 0 0.017 0 0.034 0 0.051s0 0.034 0 0.051c-0.26 0.461-0.644 1.126-1.225 2.082-0.883 1.451-1.937 3.123-3.443 5.513-22.729 35.985-67.703 99.018-131.972 152.657-64.166 53.556-144.998 95.697-240.713 95.697s-176.545-42.142-240.713-95.697zM216.625 673.816c73.754 61.556 173.294 115.517 295.392 115.517s221.641-53.961 295.394-115.517c73.651-61.472 124.147-132.559 149.44-172.602 0.333-0.533 0.678-1.071 1.028-1.621 5.018-7.902 11.533-18.159 14.827-32.529 2.658-11.601 2.658-26.526 0-38.127-3.294-14.37-9.809-24.627-14.827-32.529-0.35-0.55-0.695-1.088-1.028-1.621-25.293-40.043-75.789-111.13-149.44-172.604-73.754-61.555-173.295-115.516-295.394-115.516-122.098 0-221.638 53.961-295.392 115.516-73.653 61.474-124.151 132.561-149.441 172.604-0.334 0.529-0.677 1.071-1.027 1.621-5.018 7.902-11.535 18.159-14.828 32.529-2.659 11.601-2.659 26.526 0 38.127 3.294 14.37 9.81 24.627 14.828 32.529 0.35 0.55 0.693 1.092 1.027 1.621 25.291 40.043 75.788 111.13 149.441 172.602zM512.017 533.333c-47.13 0-85.333-38.204-85.333-85.333s38.204-85.333 85.333-85.333c47.13 0 85.333 38.204 85.333 85.333s-38.204 85.333-85.333 85.333zM341.35 448c0 94.257 76.41 170.667 170.667 170.667 94.255 0 170.667-76.41 170.667-170.667 0-94.255-76.412-170.667-170.667-170.667-94.257 0-170.667 76.412-170.667 170.667z" />
<glyph unicode="&#xe932;" glyph-name="eye-off" d="M97.848 862.17c16.662 16.662 43.677 16.662 60.34 0l155.252-155.252c2.487-1.976 4.784-4.257 6.832-6.832l443.351-443.352c2.893-2.214 5.538-4.838 7.846-7.846l154.718-154.718c16.661-16.661 16.661-43.678 0-60.339s-43.678-16.661-60.339 0l-134.558 134.558c-61.649-36.070-135.151-61.722-219.273-61.722-122.097 0-221.638 53.961-295.392 115.516-73.653 61.474-124.151 132.561-149.441 172.604-0.334 0.529-0.677 1.071-1.027 1.621-5.019 7.902-11.536 18.159-14.83 32.533-2.659 11.601-2.659 26.526 0.002 38.131 3.296 14.374 9.831 24.657 14.863 32.576 0.353 0.555 0.699 1.101 1.036 1.634 25.701 40.684 77.894 114.174 154.457 176.71l-123.838 123.837c-16.663 16.663-16.663 43.677 0 60.34zM282.38 617.298c-69.938-55.215-118.793-123.261-143.008-161.592-1.514-2.394-2.576-4.079-3.463-5.538-0.592-0.977-0.982-1.647-1.242-2.116 0-0.017 0-0.034 0-0.051s0-0.034 0-0.051c0.257-0.461 0.641-1.126 1.222-2.082 0.881-1.451 1.937-3.123 3.444-5.513 22.727-35.985 67.702-99.017 131.971-152.657 64.168-53.555 144.998-95.697 240.713-95.697 57.724 0 109.969 15.3 156.459 39.202l-69.769 69.769c-25.404-15.006-55.057-23.637-86.69-23.637-94.256 0-170.666 76.412-170.666 170.667 0 31.633 8.631 61.286 23.636 86.691l-82.607 82.607zM429.568 470.11c-1.882-7.049-2.884-14.46-2.884-22.11 0-47.13 38.204-85.333 85.333-85.333 7.654 0 15.061 1.003 22.11 2.884l-104.559 104.559zM512.017 704c-16.29 0-32.094-1.216-47.411-3.48-23.309-3.447-45.001 12.657-48.448 35.967s12.655 45.002 35.968 48.448c19.362 2.863 39.339 4.398 59.891 4.398 122.099 0 221.641-53.961 295.394-115.517 73.651-61.472 124.151-132.559 149.44-172.602 0.333-0.529 0.678-1.071 1.028-1.621 5.018-7.902 11.537-18.159 14.831-32.533 2.658-11.605 2.658-26.53-0.004-38.135-3.298-14.379-9.843-24.674-14.882-32.606-0.354-0.555-0.704-1.101-1.041-1.638-13.581-21.5-34.193-51.558-61.5-84.169-15.125-18.069-42.035-20.45-60.105-5.325-18.065 15.13-20.45 42.039-5.321 60.105 24.375 29.116 42.778 55.97 54.784 74.97 1.519 2.402 2.581 4.092 3.473 5.555 0.597 0.986 0.99 1.664 1.254 2.133 0 0.017 0 0.034 0 0.051s0 0.034 0 0.051c-0.256 0.461-0.64 1.122-1.225 2.082-0.879 1.451-1.937 3.123-3.443 5.513-22.729 35.985-67.703 99.018-131.972 152.657-64.166 53.556-144.998 95.697-240.713 95.697z" />
<glyph unicode="&#xe933;" glyph-name="ic_cancel" d="M512 746.667c-164.949 0-298.667-133.718-298.667-298.667s133.718-298.667 298.667-298.667c164.949 0 298.667 133.717 298.667 298.667s-133.717 298.667-298.667 298.667zM128 448c0 212.077 171.923 384 384 384 212.079 0 384-171.923 384-384 0-212.079-171.921-384-384-384-212.077 0-384 171.921-384 384zM670.613 609.202c16.661-16.662 16.661-43.677 0-60.34l-98.274-98.272 100.864-100.864c16.661-16.661 16.661-43.678 0-60.339s-43.678-16.661-60.339 0l-100.864 100.86-97.83-97.826c-16.663-16.666-43.677-16.666-60.34 0-16.662 16.661-16.662 43.674 0 60.339l97.831 97.83-95.243 95.24c-16.662 16.663-16.662 43.677 0 60.34s43.677 16.662 60.34 0l95.242-95.241 98.274 98.273c16.661 16.663 43.678 16.663 60.339 0z" />
<glyph unicode="&#xe936;" glyph-name="lightning" d="M920.222 909.793c16.969-11.699 23.147-33.856 14.686-52.649l-290.594-645.202c-4.945-10.974-14.293-19.349-25.741-23.066-11.447-3.712-23.932-2.419-34.377 3.567l-118.852 68.1-309.201-271.283c-15.075-13.227-37.327-14.17-53.466-2.266s-21.81 33.442-13.625 51.75l269.838 603.578c5.229 11.695 15.435 20.422 27.8 23.77s25.58 0.963 35.995-6.496l115.832-82.963 327.275 328.16c14.554 14.594 37.461 16.697 54.43 4.998zM761.050 678.923l-187.699-188.205c-14.758-14.801-38.063-16.73-55.057-4.561l-102.823 73.646-168.815-377.607 185.318 162.59c13.7 12.023 33.532 14.012 49.348 4.949l104.495-59.874 175.232 389.063z" />
<glyph unicode="&#xe937;" glyph-name="link" d="M545.088 842.638c48.282 46.633 112.947 72.436 180.070 71.853s131.332-27.507 178.795-74.971c47.462-47.464 74.389-111.672 74.97-178.795 0.585-67.122-25.22-131.79-71.851-180.072l-0.521-0.529-127.996-127.991c0-0.004 0.004 0 0 0-25.95-25.963-57.186-46.042-91.58-58.871s-71.142-18.112-107.759-15.488c-36.617 2.62-72.239 13.086-104.452 30.686s-60.268 41.924-82.255 71.322c-14.115 18.867-10.26 45.606 8.609 59.721s45.61 10.261 59.724-8.61c14.656-19.597 33.361-35.81 54.835-47.543 21.478-11.733 45.227-18.714 69.636-20.463 24.41-1.745 48.909 1.775 71.838 10.33s43.755 21.939 61.056 39.245l127.727 127.731c30.938 32.161 48.047 75.163 47.659 119.793-0.388 44.748-18.338 87.554-49.98 119.197s-74.449 49.592-119.198 49.981c-44.651 0.388-87.671-16.739-119.838-47.7l-73.156-72.73c-16.708-16.614-43.725-16.535-60.339 0.176s-16.533 43.726 0.179 60.34l73.826 73.392zM337.039 602.741c34.394 12.83 71.145 18.113 107.761 15.491s72.239-13.088 104.452-30.689c32.213-17.6 60.267-41.923 82.257-71.319 14.114-18.867 10.257-45.606-8.61-59.721-18.871-14.114-45.611-10.261-59.725 8.61-14.656 19.597-33.361 35.81-54.835 47.543-21.478 11.733-45.227 18.709-69.636 20.459s-48.91-1.771-71.84-10.325c-22.929-8.555-43.751-21.939-61.053-39.245l-127.729-127.731c-30.935-32.162-48.047-75.162-47.659-119.795 0.389-44.749 18.338-87.552 49.981-119.198 31.643-31.642 74.449-49.591 119.197-49.98 44.632-0.388 87.635 16.725 119.796 47.659l72.683 72.683c16.661 16.666 43.678 16.666 60.339 0 16.661-16.661 16.661-43.674 0-60.339l-73.489-73.481c-48.282-46.63-112.948-72.435-180.070-71.851s-131.33 27.507-178.795 74.97c-47.465 47.467-74.388 111.676-74.971 178.795-0.583 67.123 25.22 131.789 71.852 180.070l0.52 0.529 127.994 127.996c-0.002-0.002 0.002 0.002 0 0 25.952 25.96 57.188 46.040 91.579 58.869z" />
<glyph unicode="&#xe938;" glyph-name="menu" d="M85.333 704c0 23.564 19.103 42.667 42.667 42.667h768c23.565 0 42.667-19.103 42.667-42.667s-19.102-42.667-42.667-42.667h-768c-23.564 0-42.667 19.103-42.667 42.667zM85.333 448c0 23.565 19.103 42.667 42.667 42.667h768c23.565 0 42.667-19.102 42.667-42.667s-19.102-42.667-42.667-42.667h-768c-23.564 0-42.667 19.102-42.667 42.667zM85.333 192c0 23.565 19.103 42.667 42.667 42.667h768c23.565 0 42.667-19.102 42.667-42.667s-19.102-42.667-42.667-42.667h-768c-23.564 0-42.667 19.102-42.667 42.667z" />
<glyph unicode="&#xe939;" glyph-name="minus" d="M170.667 448c0 23.565 19.103 42.667 42.667 42.667h597.333c23.565 0 42.667-19.102 42.667-42.667s-19.102-42.667-42.667-42.667h-597.333c-23.564 0-42.667 19.102-42.667 42.667z" />
<glyph unicode="&#xe93a;" glyph-name="moon" d="M511.902 885.603c6.063-19.172-2.082-39.976-19.55-49.933-90.295-51.465-151.019-148.51-151.019-259.685 0-164.951 133.717-298.668 298.667-298.668 111.168 0 208.205 60.715 259.674 150.997 9.958 17.468 30.763 25.613 49.933 19.55 19.174-6.067 31.509-24.691 29.611-44.71-22.605-238.195-223.13-424.491-467.217-424.491-259.206 0-469.333 210.125-469.333 469.333 0 244.099 186.319 444.632 424.529 467.218 20.019 1.898 38.643-10.438 44.706-29.611zM312.111 775.939c-110.407-67.447-184.111-189.101-184.111-327.944 0-212.079 171.923-384 384-384 138.833 0 260.48 73.69 327.927 184.085-58.223-35.58-126.673-56.098-199.927-56.098-212.079 0-384 171.925-384 384.002 0 73.267 20.525 141.726 56.111 199.955z" />
<glyph unicode="&#xe93b;" glyph-name="more" d="M512 714.667c-5.892 0-10.667-4.776-10.667-10.667s4.774-10.667 10.667-10.667c5.892 0 10.667 4.776 10.667 10.667s-4.774 10.667-10.667 10.667zM437.333 704c0 41.237 33.429 74.667 74.667 74.667s74.667-33.429 74.667-74.667c0-41.237-33.429-74.667-74.667-74.667s-74.667 33.429-74.667 74.667zM512 458.667c-5.892 0-10.667-4.774-10.667-10.667s4.774-10.667 10.667-10.667c5.892 0 10.667 4.774 10.667 10.667s-4.774 10.667-10.667 10.667zM437.333 448c0 41.237 33.429 74.667 74.667 74.667s74.667-33.429 74.667-74.667c0-41.237-33.429-74.667-74.667-74.667s-74.667 33.429-74.667 74.667zM512 202.667c-5.892 0-10.667-4.774-10.667-10.667s4.774-10.667 10.667-10.667c5.892 0 10.667 4.774 10.667 10.667s-4.774 10.667-10.667 10.667zM437.333 192c0 41.237 33.429 74.667 74.667 74.667s74.667-33.429 74.667-74.667c0-41.237-33.429-74.667-74.667-74.667s-74.667 33.429-74.667 74.667z" />
<glyph unicode="&#xe93c;" glyph-name="pin" d="M566.353 893.724c18.803 12.333 41.715 16.746 63.753 12.278 16.64-3.373 29.355-12.337 38.827-20.235 9.054-7.548 19.191-17.686 30.101-28.598l221.833-221.833c10.914-10.91 21.052-21.047 28.599-30.101 7.898-9.474 16.862-22.187 20.237-38.826 4.467-22.039 0.055-44.949-12.279-63.757-9.31-14.195-22.357-22.669-33.207-28.531-10.372-5.606-23.552-11.251-37.734-17.331l-107.981-46.276c-2.423-1.037-3.605-1.545-4.459-1.937-0.017-0.009-0.038-0.017-0.055-0.026-0.017-0.013-0.030-0.026-0.047-0.043-0.678-0.649-1.591-1.557-3.456-3.422l-66.598-66.598c-2.914-2.914-4.343-4.352-5.35-5.431-0.026-0.026-0.051-0.051-0.073-0.077-0.009-0.034-0.017-0.068-0.026-0.102-0.337-1.438-0.742-3.43-1.549-7.471l-31.633-158.161c-3.75-18.756-7.125-35.627-11.059-48.87-3.934-13.252-10.411-30.37-25.003-43.315-18.662-16.559-43.639-24.124-68.352-20.698-19.324 2.679-34.206 13.333-44.83 22.174-10.62 8.836-22.784 21.001-36.309 34.53l-122.3 122.3-211.19-211.191c-16.662-16.661-43.677-16.661-60.34 0-16.662 16.666-16.662 43.678 0 60.339l211.19 211.191-122.296 122.295c-13.529 13.53-25.694 25.69-34.53 36.309-8.843 10.628-19.495 25.51-22.174 44.83-3.427 24.717 4.136 49.693 20.696 68.357 12.947 14.591 30.065 21.065 43.318 25.002 13.242 3.934 30.112 7.307 48.872 11.057l158.159 31.632c4.041 0.808 6.030 1.212 7.468 1.552 0.035 0.009 0.070 0.017 0.102 0.024 0.025 0.023 0.050 0.047 0.077 0.072 1.080 1.008 2.52 2.439 5.434 5.353l66.6 66.598c1.865 1.865 2.773 2.776 3.418 3.454 0.017 0.016 0.030 0.031 0.047 0.046 0.009 0.019 0.017 0.038 0.026 0.058 0.388 0.853 0.896 2.035 1.937 4.459l46.276 107.979c6.076 14.184 11.725 27.363 17.327 37.734 5.862 10.851 14.34 23.896 28.535 33.207zM538.735 172.71c15.249-15.249 24.619-24.559 31.855-30.579 0.469-0.388 0.905-0.747 1.31-1.071 0.158 0.495 0.324 1.033 0.495 1.617 2.684 9.024 5.316 21.969 9.545 43.115l31.27 156.352c0.102 0.508 0.205 1.028 0.311 1.566 1.161 5.875 2.628 13.278 5.444 20.459 2.445 6.234 5.615 12.16 9.446 17.655 4.412 6.323 9.758 11.648 14.003 15.876 0.388 0.384 0.764 0.764 1.131 1.126l66.598 66.598c0.235 0.235 0.474 0.474 0.721 0.721 2.714 2.722 6.131 6.148 10.031 9.246 3.392 2.697 6.985 5.129 10.743 7.275 4.326 2.47 8.781 4.373 12.314 5.884 0.32 0.137 0.631 0.269 0.934 0.397l106.428 45.612c16.273 6.975 25.796 11.101 32.333 14.634 0.35 0.189 0.678 0.369 0.977 0.538-0.218 0.27-0.452 0.558-0.708 0.863-4.757 5.709-12.066 13.076-24.585 25.597l-219.443 219.44c-12.518 12.521-19.887 19.829-25.596 24.588-0.303 0.255-0.593 0.49-0.862 0.708-0.171-0.303-0.35-0.628-0.538-0.978-3.533-6.539-7.659-16.061-14.635-32.335l-45.611-106.426c-0.132-0.304-0.265-0.616-0.401-0.936-1.51-3.534-3.409-7.986-5.879-12.311-2.15-3.761-4.582-7.353-7.275-10.744-3.102-3.901-6.528-7.319-9.25-10.033-0.243-0.245-0.486-0.485-0.717-0.719l-66.598-66.598c-0.367-0.367-0.742-0.744-1.126-1.13-4.228-4.245-9.553-9.592-15.881-14.003-5.491-3.831-11.418-7.003-17.655-9.449-7.178-2.816-14.581-4.281-20.458-5.445-0.535-0.106-1.057-0.209-1.566-0.311l-156.35-31.269c-21.147-4.233-34.091-6.865-43.116-9.545-0.582-0.175-1.119-0.337-1.615-0.495 0.325-0.405 0.68-0.845 1.068-1.31 6.022-7.236 15.332-16.606 30.581-31.855l302.325-302.327z" />
<glyph unicode="&#xe93d;" glyph-name="plus" d="M512 789.333c23.565 0 42.667-19.103 42.667-42.667v-256h256c23.565 0 42.667-19.102 42.667-42.667s-19.102-42.667-42.667-42.667h-256v-256c0-23.565-19.102-42.667-42.667-42.667s-42.667 19.102-42.667 42.667v256h-256c-23.564 0-42.667 19.102-42.667 42.667s19.103 42.667 42.667 42.667h256v256c0 23.564 19.102 42.667 42.667 42.667z" />
<glyph unicode="&#xe93e;" glyph-name="send-message" d="M824.917 700.592l-327.083-327.079 99.546-255.974 227.537 583.054zM437.495 433.852l327.083 327.080-583.058-227.534 255.975-99.546zM880.947 897.099c7.812 2.27 23.535 6.35 40.422 0.709 19.076-6.373 34.048-21.345 40.422-40.423 5.641-16.886 1.562-32.607-0.708-40.423-2.475-8.518-6.438-18.669-10.415-28.854l-282.342-723.506c-4.442-11.383-8.742-22.409-12.949-30.921-3.639-7.351-11.729-22.985-28.523-31.71-18.522-9.621-40.572-9.609-59.081 0.034-16.781 8.747-24.858 24.388-28.484 31.744-4.198 8.516-8.486 19.546-12.915 30.938l-111.356 286.349-284.842 110.771c-0.502 0.196-1.004 0.388-1.505 0.585-11.39 4.429-22.421 8.717-30.937 12.915-7.358 3.627-22.998 11.699-31.743 28.484-9.643 18.509-9.656 40.557-0.035 59.077 8.725 16.794 24.355 24.887 31.709 28.524 8.511 4.208 19.537 8.509 30.922 12.951 0.5 0.195 1.002 0.391 1.504 0.587l721.999 281.756c10.185 3.977 20.335 7.94 28.855 10.414z" />
<glyph unicode="&#xe93f;" glyph-name="share" d="M768 832c47.13 0 85.333-38.205 85.333-85.333s-38.204-85.333-85.333-85.333c-30.613 0-57.463 16.122-72.521 40.338-0.358 0.697-0.734 1.388-1.135 2.074-0.405 0.69-0.823 1.364-1.259 2.023-6.643 12.144-10.419 26.080-10.419 40.898 0 47.128 38.204 85.333 85.333 85.333zM646.746 626.566c30.929-31.225 73.83-50.566 121.254-50.566 94.255 0 170.667 76.41 170.667 170.667s-76.412 170.667-170.667 170.667c-94.255 0-170.667-76.41-170.667-170.667 0-16.086 2.227-31.652 6.387-46.408l-226.464-132.159c-30.929 31.225-73.834 50.566-121.256 50.566-94.257 0-170.667-76.41-170.667-170.667 0-94.255 76.41-170.667 170.667-170.667 47.431 0 90.343 19.349 121.273 50.586l226.499-131.989c-4.194-14.81-6.438-30.443-6.438-46.596 0-94.255 76.412-170.667 170.667-170.667s170.667 76.412 170.667 170.667c0 94.255-76.412 170.667-170.667 170.667-47.351 0-90.197-19.285-121.118-50.428l-226.594 132.045c4.156 14.746 6.379 30.306 6.379 46.383 0 16.085-2.225 31.654-6.385 46.409l226.464 132.158zM328.521 492.996c0.358-0.7 0.736-1.391 1.135-2.074 0.403-0.691 0.822-1.365 1.257-2.022 6.644-12.147 10.421-26.082 10.421-40.9s-3.777-28.753-10.421-40.896c-0.439-0.67-0.863-1.353-1.27-2.048-0.395-0.678-0.768-1.361-1.122-2.052-15.057-24.213-41.906-40.337-72.521-40.337-47.128 0-85.333 38.204-85.333 85.333s38.205 85.333 85.333 85.333c30.615 0 57.463-16.124 72.521-40.337zM691.853 187.887c1.054 1.382 2.031 2.85 2.931 4.39 0.862 1.481 1.626 2.987 2.291 4.523 15.313 22.835 41.365 37.867 70.925 37.867 47.13 0 85.333-38.204 85.333-85.333s-38.204-85.333-85.333-85.333c-47.13 0-85.333 38.204-85.333 85.333 0 13.871 3.311 26.974 9.186 38.554z" />
<glyph unicode="&#xe943;" glyph-name="x-close" d="M225.83 734.17c16.663 16.662 43.677 16.662 60.34 0l225.83-225.831 225.83 225.831c16.661 16.662 43.678 16.662 60.339 0s16.661-43.677 0-60.34l-225.83-225.83 225.83-225.83c16.661-16.661 16.661-43.678 0-60.339s-43.678-16.661-60.339 0l-225.83 225.83-225.83-225.83c-16.663-16.661-43.677-16.661-60.34 0s-16.662 43.678 0 60.339l225.831 225.83-225.831 225.83c-16.662 16.663-16.662 43.677 0 60.34z" />
<glyph unicode="&#xea48;" glyph-name="dots-vertical" d="M204.8 448c0 37.704 30.564 68.267 68.267 68.267s68.267-30.563 68.267-68.267c0-37.704-30.564-68.267-68.267-68.267s-68.267 30.563-68.267 68.267zM443.733 448c0 37.704 30.563 68.267 68.267 68.267s68.267-30.563 68.267-68.267c0-37.704-30.563-68.267-68.267-68.267s-68.267 30.563-68.267 68.267zM682.667 448c0 37.704 30.563 68.267 68.267 68.267s68.267-30.563 68.267-68.267c0-37.704-30.563-68.267-68.267-68.267s-68.267 30.563-68.267 68.267z" />
</font>
</defs>
</svg>
